<svg width="270" height="72" viewBox="0 0 270 72" fill="none" xmlns="http://www.w3.org/2000/svg">
<path d="M99.4338 34.6628C99.7158 35.4853 99.986 36.0846 100.245 36.4606C100.503 36.8131 100.809 37.0481 101.161 37.1656C101.537 37.2596 102.031 37.3301 102.642 37.3771V38.1879H94.2167V37.3771C95.0157 37.3301 95.6032 37.2479 95.9792 37.1304C96.3787 37.0128 96.602 36.7661 96.649 36.3901C96.696 36.0141 96.5785 35.4383 96.2965 34.6628L94.2872 28.5997C94.1697 28.7172 93.9935 28.7995 93.7585 28.8465C93.5235 28.87 93.2767 28.8817 93.0182 28.8817H88.4004C87.8834 28.8817 87.4956 28.9405 87.2371 29.058C86.9786 29.1755 86.7554 29.4928 86.5674 30.0098L84.9106 34.6628C84.6051 35.5558 84.6051 36.2256 84.9106 36.6721C85.2396 37.0951 86.1561 37.3301 87.6601 37.3771V38.1879H80.3633V37.3771C81.1153 37.3301 81.7028 37.0951 82.1258 36.6721C82.5723 36.2256 82.9601 35.5558 83.2891 34.6628L89.5284 17.5311C89.7634 16.9201 89.9867 16.3208 90.1982 15.7333C90.4097 15.1458 90.5977 14.5466 90.7622 13.9355H92.4894C92.6539 14.5466 92.8302 15.1458 93.0182 15.7333C93.2297 16.3208 93.453 16.9201 93.688 17.5311L99.4338 34.6628ZM93.0887 27.6127C93.3942 27.6127 93.6057 27.5775 93.7232 27.507C93.8407 27.413 93.8407 27.225 93.7232 26.943L90.8327 18.3771H90.7622L87.3781 27.7185C87.4956 27.6715 87.6366 27.648 87.8011 27.648C87.9656 27.6245 88.1536 27.6127 88.3651 27.6127H93.0887Z" fill="#01152E"/>
<path d="M118.99 32.6888H119.8L119.518 38.1879H104.995V37.3771C105.512 37.3536 105.923 37.2831 106.229 37.1656C106.534 37.0481 106.758 36.8013 106.899 36.4253C107.04 36.0493 107.11 35.4618 107.11 34.6628V23.2064C107.11 22.3839 107.028 21.7964 106.863 21.4439C106.699 21.0679 106.405 20.8211 105.982 20.7036C105.559 20.5861 104.936 20.5156 104.114 20.4921V19.6814H112.08V20.4921C111.563 20.5156 111.152 20.5861 110.847 20.7036C110.541 20.8211 110.318 21.0679 110.177 21.4439C110.036 21.7964 109.965 22.3839 109.965 23.2064V34.6628C109.965 35.6733 110.142 36.3078 110.494 36.5663C110.87 36.8013 111.587 36.9188 112.644 36.9188H115.006C116.393 36.9188 117.38 36.5076 117.967 35.6851C118.555 34.8391 118.896 33.8403 118.99 32.6888Z" fill="#01152E"/>
<path d="M122.792 38.1879V37.3771C123.309 37.3536 123.721 37.2831 124.026 37.1656C124.332 37.0481 124.555 36.8013 124.696 36.4253C124.837 36.0493 124.907 35.4618 124.907 34.6628V23.2064C124.907 22.3839 124.825 21.7964 124.661 21.4439C124.496 21.0679 124.202 20.8211 123.779 20.7036C123.356 20.5861 122.734 20.5156 121.911 20.4921V19.6814H124.907C126.364 19.6814 127.516 19.6579 128.362 19.6109C129.232 19.5404 130.007 19.5051 130.689 19.5051C133.203 19.5051 135.001 19.9164 136.082 20.7389C137.186 21.5614 137.739 22.5954 137.739 23.8409C137.739 24.4754 137.586 25.1569 137.28 25.8855C136.975 26.5905 136.47 27.2367 135.765 27.8242C135.06 28.4117 134.108 28.8582 132.909 29.1637C131.711 29.4457 130.23 29.5045 128.468 29.34V28.2825C129.737 28.4 130.771 28.3412 131.57 28.1062C132.392 27.8712 133.027 27.5305 133.473 27.084C133.92 26.6375 134.225 26.1557 134.39 25.6387C134.554 25.0982 134.637 24.5812 134.637 24.0877C134.637 22.8422 134.249 21.9844 133.473 21.5144C132.698 21.0209 131.687 20.7741 130.442 20.7741C129.525 20.7741 128.844 20.9151 128.397 21.1971C127.974 21.4556 127.763 22.1254 127.763 23.2064V34.6628C127.763 35.4618 127.845 36.0493 128.01 36.4253C128.198 36.8013 128.55 37.0481 129.067 37.1656C129.608 37.2831 130.395 37.3536 131.429 37.3771V38.1879H122.792Z" fill="#01152E"/>
<path d="M141.313 38.1879V37.3771C141.83 37.3536 142.241 37.2831 142.546 37.1656C142.852 37.0481 143.075 36.8013 143.216 36.4253C143.357 36.0493 143.428 35.4618 143.428 34.6628V23.2064C143.428 22.3839 143.345 21.7964 143.181 21.4439C143.016 21.0679 142.723 20.8211 142.3 20.7036C141.877 20.5861 141.254 20.5156 140.431 20.4921V19.6814H154.637V23.9467H153.827C153.803 23.2887 153.686 22.7482 153.474 22.3252C153.263 21.8787 152.875 21.5379 152.311 21.3029C151.77 21.0679 150.96 20.9504 149.879 20.9504H147.834C147.341 20.9504 146.953 21.0679 146.671 21.3029C146.412 21.5379 146.283 22.1724 146.283 23.2064V27.6832C146.471 27.5422 146.694 27.4482 146.953 27.4012C147.235 27.3542 147.564 27.3307 147.94 27.3307H150.866C151.547 27.3307 152.064 27.1897 152.417 26.9077C152.793 26.6257 152.992 26.097 153.016 25.3214H153.827V30.609H153.016C152.992 29.8335 152.828 29.3047 152.522 29.0227C152.24 28.7407 151.688 28.5997 150.866 28.5997H148.01C147.376 28.5997 146.929 28.7055 146.671 28.917C146.412 29.1285 146.283 29.5398 146.283 30.1508V34.6628C146.283 35.6733 146.459 36.3078 146.812 36.5663C147.188 36.8013 147.905 36.9188 148.962 36.9188H151.465C152.992 36.9188 154.073 36.5076 154.708 35.6851C155.342 34.8626 155.707 33.8756 155.801 32.724H156.611L156.329 38.1879H141.313Z" fill="#01152E"/>
<path d="M176.533 38.4699C176.181 37.9294 175.793 37.3889 175.37 36.8483C174.971 36.3078 174.395 35.6498 173.643 34.8743L164.02 24.7927H163.949V34.6628C163.949 35.5323 164.161 36.1903 164.584 36.6368C165.03 37.0833 165.947 37.3301 167.333 37.3771V38.1879H160.248V37.3771C161.023 37.3301 161.564 37.0833 161.869 36.6368C162.198 36.1903 162.363 35.5323 162.363 34.6628V23.2064C162.363 22.2899 162.104 21.6201 161.587 21.1971C161.094 20.7741 160.353 20.5391 159.366 20.4921V19.6814H163.808C164.161 20.2689 164.537 20.8329 164.936 21.3734C165.336 21.8904 165.794 22.4192 166.311 22.9597L176.04 33.0765H176.11V23.2064C176.11 22.3369 175.911 21.6789 175.511 21.2324C175.135 20.7859 174.336 20.5391 173.114 20.4921V19.6814H179.847V20.4921C179.071 20.5391 178.519 20.7859 178.19 21.2324C177.885 21.6789 177.732 22.3369 177.732 23.2064V34.6628C177.732 35.3208 177.732 35.9553 177.732 36.5663C177.755 37.1539 177.779 37.7884 177.802 38.4699H176.533Z" fill="#01152E"/>
<path d="M192.961 38.7166C191.292 38.7166 189.847 38.4464 188.625 37.9059C187.426 37.3419 186.439 36.6016 185.664 35.6851C184.912 34.7686 184.348 33.7463 183.972 32.6183C183.619 31.4903 183.443 30.3505 183.443 29.199C183.443 27.319 183.878 25.6269 184.747 24.1229C185.64 22.5954 186.874 21.3851 188.449 20.4921C190.047 19.5991 191.915 19.1526 194.053 19.1526C195.228 19.1526 196.368 19.2819 197.473 19.5404C198.601 19.7989 199.564 20.1044 200.363 20.4569V25.0042H199.553C199.318 23.4532 198.624 22.3252 197.473 21.6201C196.345 20.9151 195.04 20.5626 193.56 20.5626C191.351 20.5626 189.635 21.2676 188.413 22.6777C187.215 24.0642 186.616 26.0147 186.616 28.5292C186.616 29.5868 186.733 30.6443 186.968 31.7018C187.203 32.7358 187.579 33.6876 188.096 34.5571C188.637 35.4031 189.33 36.0846 190.176 36.6016C191.022 37.1186 192.056 37.3771 193.278 37.3771C194.523 37.3771 195.569 37.1539 196.415 36.7073C197.261 36.2373 197.802 35.6381 198.037 34.9096C198.107 34.7216 198.178 34.4513 198.248 34.0988C198.319 33.7463 198.354 33.2763 198.354 32.6888C198.354 32.0308 198.272 31.549 198.107 31.2435C197.966 30.9145 197.696 30.703 197.296 30.609C196.897 30.4915 196.298 30.421 195.499 30.3975V29.5868H202.126V30.3975C201.632 30.421 201.303 30.5738 201.139 30.8558C200.998 31.1143 200.927 31.5138 200.927 32.0543V32.6888C200.927 33.0648 200.939 33.4291 200.963 33.7816C200.986 34.1341 201.068 34.6158 201.209 35.2268C200.763 35.7203 200.187 36.2373 199.482 36.7778C198.777 37.3184 197.896 37.7766 196.838 38.1526C195.781 38.5286 194.488 38.7166 192.961 38.7166Z" fill="#01152E"/>
<path d="M220.025 32.6888H220.836L220.554 38.1879H206.03V37.3771C206.547 37.3536 206.959 37.2831 207.264 37.1656C207.57 37.0481 207.793 36.8013 207.934 36.4253C208.075 36.0493 208.145 35.4618 208.145 34.6628V23.2064C208.145 22.3839 208.063 21.7964 207.899 21.4439C207.734 21.0679 207.44 20.8211 207.017 20.7036C206.594 20.5861 205.972 20.5156 205.149 20.4921V19.6814H213.116V20.4921C212.599 20.5156 212.187 20.5861 211.882 20.7036C211.576 20.8211 211.353 21.0679 211.212 21.4439C211.071 21.7964 211.001 22.3839 211.001 23.2064V34.6628C211.001 35.6733 211.177 36.3078 211.529 36.5663C211.905 36.8013 212.622 36.9188 213.68 36.9188H216.041C217.428 36.9188 218.415 36.5076 219.003 35.6851C219.59 34.8391 219.931 33.8403 220.025 32.6888Z" fill="#01152E"/>
<path d="M232.649 19.1526C234.599 19.1526 236.279 19.6109 237.689 20.5274C239.123 21.4439 240.227 22.6542 241.003 24.1582C241.802 25.6387 242.201 27.2367 242.201 28.9522C242.201 30.6913 241.79 32.301 240.968 33.7816C240.169 35.2621 239.052 36.4606 237.619 37.3771C236.185 38.2701 234.505 38.7166 232.578 38.7166C230.651 38.7166 228.971 38.2584 227.537 37.3419C226.127 36.4253 225.023 35.2268 224.224 33.7463C223.448 32.2423 223.06 30.6325 223.06 28.917C223.06 27.178 223.46 25.5682 224.259 24.0877C225.058 22.6072 226.174 21.4204 227.608 20.5274C229.065 19.6109 230.745 19.1526 232.649 19.1526ZM233.072 37.3066C234.505 37.3066 235.668 36.9658 236.561 36.2843C237.454 35.5793 238.112 34.6511 238.535 33.4996C238.982 32.3245 239.205 31.0438 239.205 29.6573C239.205 27.9887 238.923 26.473 238.359 25.1099C237.819 23.7234 237.031 22.6189 235.997 21.7964C234.963 20.9739 233.694 20.5626 232.19 20.5626C230.757 20.5626 229.582 20.9151 228.665 21.6201C227.772 22.3017 227.114 23.2182 226.691 24.3697C226.268 25.5212 226.057 26.802 226.057 28.212C226.057 29.8805 226.327 31.408 226.868 32.7945C227.432 34.1576 228.231 35.2503 229.265 36.0728C230.322 36.8953 231.591 37.3066 233.072 37.3066Z" fill="#01152E"/>
<path d="M250.295 38.4699C250.201 37.8589 250.119 37.3536 250.048 36.9541C250.001 36.5311 249.884 36.0141 249.696 35.4031L246.276 23.2064C246.041 22.3839 245.83 21.7964 245.642 21.4439C245.477 21.0679 245.289 20.8211 245.078 20.7036C244.89 20.5861 244.631 20.5156 244.302 20.4921L244.267 19.6814H251.353L251.388 20.4921C250.612 20.5156 250.037 20.5979 249.661 20.7389C249.308 20.8564 249.108 21.1031 249.061 21.4791C249.038 21.8316 249.132 22.4074 249.343 23.2064L252.128 32.8298H252.199L257.098 19.3994H258.685C258.873 20.0574 259.072 20.6919 259.284 21.3029C259.519 21.9139 259.754 22.5484 259.989 23.2064L263.584 32.865H263.655L266.44 23.2064C266.933 21.4909 266.087 20.5861 263.902 20.4921L263.866 19.6814H269.965L270 20.4921C269.178 20.5861 268.508 21.4909 267.991 23.2064L264.501 35.4031C264.336 35.9906 264.207 36.4958 264.113 36.9188C264.019 37.3419 263.937 37.8589 263.866 38.4699H262.28C262.139 37.8589 262.01 37.3536 261.892 36.9541C261.775 36.5311 261.599 36.0141 261.364 35.4031L257.239 23.9819H257.169L252.798 35.4031C252.563 36.0611 252.387 36.5898 252.269 36.9893C252.175 37.3654 252.069 37.8589 251.952 38.4699H250.295Z" fill="#01152E"/>
<path d="M93.3158 50.6623H91.847C91.612 49.6962 91.1224 48.939 90.3783 48.3906C89.6341 47.8423 88.7333 47.5681 87.6757 47.5681C86.0568 47.5681 84.81 48.1948 83.9353 49.4482C83.165 50.5448 82.7798 51.981 82.7798 53.7565C82.7798 55.741 83.276 57.2881 84.2682 58.3979C85.1299 59.3509 86.2527 59.8275 87.6366 59.8275C88.916 59.8275 89.967 59.4097 90.7895 58.5741C91.5076 57.843 91.9515 56.8769 92.1212 55.6757H93.4921C93.3223 56.8769 92.9633 57.8626 92.415 58.6329C91.3183 60.2257 89.7124 61.0221 87.5974 61.0221C85.5607 61.0221 83.981 60.2779 82.8582 58.7895C81.879 57.497 81.3894 55.7998 81.3894 53.6978C81.3894 51.2825 82.0357 49.4155 83.3282 48.0969C84.4379 46.948 85.9067 46.3735 87.7345 46.3735C89.2751 46.3735 90.5545 46.8044 91.5729 47.6661C92.4607 48.4233 93.0416 49.422 93.3158 50.6623Z" fill="#01152E"/>
<path d="M98.7374 46.6869V60.7087H97.4057V46.6869H98.7374Z" fill="#01152E"/>
<path d="M107.464 50.2707C108.965 50.2707 110.147 50.8255 111.009 51.9353C111.766 52.9014 112.145 54.1352 112.145 55.6366C112.145 57.3469 111.661 58.6981 110.695 59.6904C109.847 60.5521 108.77 60.9829 107.464 60.9829C105.963 60.9829 104.781 60.428 103.919 59.3183C103.162 58.3522 102.784 57.1249 102.784 55.6366C102.784 53.9132 103.267 52.5554 104.233 51.5632C105.081 50.7015 106.158 50.2707 107.464 50.2707ZM107.464 51.3869C106.38 51.3869 105.532 51.8243 104.918 52.699C104.383 53.4563 104.115 54.4354 104.115 55.6366C104.115 57.0074 104.461 58.0845 105.153 58.8679C105.741 59.5337 106.511 59.8666 107.464 59.8666C108.548 59.8666 109.396 59.4293 110.01 58.5545C110.545 57.7973 110.813 56.8246 110.813 55.6366C110.813 54.2657 110.467 53.1886 109.775 52.4053C109.174 51.7264 108.404 51.3869 107.464 51.3869Z" fill="#01152E"/>
<path d="M124.015 60.7087H122.762V59.2791C121.991 60.415 120.934 60.9829 119.589 60.9829C118.414 60.9829 117.526 60.6304 116.926 59.9254C116.469 59.4032 116.24 58.5872 116.24 57.4774V50.5448H117.494V57.2033C117.494 58.1433 117.657 58.7961 117.983 59.1616C118.375 59.6316 118.963 59.8666 119.746 59.8666C120.621 59.8666 121.352 59.5729 121.939 58.9854C122.488 58.437 122.762 57.6145 122.762 56.5178V50.5448H124.015V60.7087Z" fill="#01152E"/>
<path d="M137.072 46.6869V60.7087H135.799V59.24C134.963 60.4019 133.873 60.9829 132.528 60.9829C131.092 60.9829 129.963 60.428 129.14 59.3183C128.422 58.3522 128.063 57.1184 128.063 55.617C128.063 53.9197 128.527 52.5685 129.454 51.5632C130.263 50.7015 131.288 50.2707 132.528 50.2707C133.873 50.2707 134.963 50.8647 135.799 52.0528V46.6869H137.072ZM132.567 51.3869C131.497 51.3869 130.668 51.8178 130.08 52.6795C129.571 53.4236 129.317 54.4093 129.317 55.6366C129.317 57.0466 129.643 58.1302 130.296 58.8874C130.87 59.5402 131.627 59.8666 132.567 59.8666C133.586 59.8666 134.376 59.4945 134.937 58.7504C135.512 57.9931 135.799 56.9487 135.799 55.617C135.799 54.22 135.472 53.1429 134.82 52.3857C134.258 51.7199 133.507 51.3869 132.567 51.3869Z" fill="#01152E"/>
<path d="M158.369 50.6623H156.9C156.665 49.6962 156.175 48.939 155.431 48.3906C154.687 47.8423 153.786 47.5681 152.728 47.5681C151.11 47.5681 149.863 48.1948 148.988 49.4482C148.218 50.5448 147.833 51.981 147.833 53.7565C147.833 55.741 148.329 57.2881 149.321 58.3979C150.183 59.3509 151.305 59.8275 152.689 59.8275C153.969 59.8275 155.02 59.4097 155.842 58.5741C156.56 57.843 157.004 56.8769 157.174 55.6757H158.545C158.375 56.8769 158.016 57.8626 157.468 58.6329C156.371 60.2257 154.765 61.0221 152.65 61.0221C150.613 61.0221 149.034 60.2779 147.911 58.7895C146.932 57.497 146.442 55.7998 146.442 53.6978C146.442 51.2825 147.088 49.4155 148.381 48.0969C149.491 46.948 150.959 46.3735 152.787 46.3735C154.328 46.3735 155.607 46.8044 156.626 47.6661C157.513 48.4233 158.094 49.422 158.369 50.6623Z" fill="#01152E"/>
<path d="M166.551 50.2707C168.053 50.2707 169.234 50.8255 170.096 51.9353C170.853 52.9014 171.232 54.1352 171.232 55.6366C171.232 57.3469 170.749 58.6981 169.783 59.6904C168.934 60.5521 167.857 60.9829 166.551 60.9829C165.05 60.9829 163.868 60.428 163.007 59.3183C162.25 58.3522 161.871 57.1249 161.871 55.6366C161.871 53.9132 162.354 52.5554 163.32 51.5632C164.169 50.7015 165.246 50.2707 166.551 50.2707ZM166.551 51.3869C165.468 51.3869 164.619 51.8243 164.006 52.699C163.47 53.4563 163.203 54.4354 163.203 55.6366C163.203 57.0074 163.549 58.0845 164.241 58.8679C164.828 59.5337 165.598 59.8666 166.551 59.8666C167.635 59.8666 168.484 59.4293 169.097 58.5545C169.633 57.7973 169.9 56.8246 169.9 55.6366C169.9 54.2657 169.554 53.1886 168.862 52.4053C168.262 51.7264 167.491 51.3869 166.551 51.3869Z" fill="#01152E"/>
<path d="M175.328 50.5448H176.581V51.994C177.364 50.8451 178.422 50.2707 179.754 50.2707C180.929 50.2707 181.816 50.6232 182.417 51.3282C182.874 51.8635 183.102 52.6795 183.102 53.7761V60.7087H181.849V54.0503C181.849 53.1103 181.686 52.4575 181.36 52.0919C180.968 51.6219 180.38 51.3869 179.597 51.3869C178.722 51.3869 177.991 51.6872 177.404 52.2878C176.855 52.8361 176.581 53.6521 176.581 54.7357V60.7087H175.328V50.5448Z" fill="#01152E"/>
<path d="M195.102 53.4824H193.711C193.476 52.0854 192.621 51.3869 191.146 51.3869C189.553 51.3869 188.756 51.9744 188.756 53.1495C188.756 53.8936 189.259 54.3832 190.264 54.6182L192.771 55.2253C194.377 55.6039 195.18 56.446 195.18 57.7516C195.18 58.8091 194.775 59.6316 193.966 60.2191C193.261 60.7283 192.353 60.9829 191.244 60.9829C189.716 60.9829 188.587 60.5455 187.856 59.6708C187.555 59.3052 187.353 58.9984 187.249 58.7504C187.144 58.4893 187.085 58.1302 187.072 57.6733H188.502C188.554 58.4566 188.796 59.018 189.226 59.3575C189.657 59.6969 190.349 59.8666 191.302 59.8666C192.086 59.8666 192.706 59.6904 193.163 59.3379C193.62 58.9854 193.848 58.5088 193.848 57.9083C193.848 57.1249 193.306 56.6092 192.223 56.3612L189.755 55.7737C188.202 55.4081 187.425 54.5464 187.425 53.1886C187.425 52.2878 187.758 51.5762 188.424 51.054C189.102 50.5318 190.023 50.2707 191.185 50.2707C192.412 50.2707 193.385 50.6101 194.103 51.289C194.703 51.8635 195.036 52.5946 195.102 53.4824Z" fill="#01152E"/>
<path d="M206.986 60.7087H205.733V59.2791C204.962 60.415 203.905 60.9829 202.56 60.9829C201.385 60.9829 200.497 60.6304 199.897 59.9254C199.44 59.4032 199.211 58.5872 199.211 57.4774V50.5448H200.465V57.2033C200.465 58.1433 200.628 58.7961 200.954 59.1616C201.346 59.6316 201.933 59.8666 202.717 59.8666C203.592 59.8666 204.323 59.5729 204.91 58.9854C205.458 58.437 205.733 57.6145 205.733 56.5178V50.5448H206.986V60.7087Z" fill="#01152E"/>
<path d="M212.953 46.6869V60.7087H211.622V46.6869H212.953Z" fill="#01152E"/>
<path d="M221.112 50.5448V51.5632H219.232V58.7308C219.232 59.0702 219.284 59.3052 219.389 59.4358C219.506 59.5533 219.709 59.612 219.996 59.612C220.322 59.612 220.681 59.5468 221.073 59.4162L221.288 60.5912C220.583 60.7609 220.009 60.8458 219.565 60.8458C218.951 60.8458 218.52 60.6957 218.272 60.3954C218.024 60.0951 217.9 59.5794 217.9 58.8483V51.5632H216.451V50.5448H217.9V48.4494L219.232 47.5877V50.5448H221.112Z" fill="#01152E"/>
<path d="M226.068 50.5448V60.7087H224.795V50.5448H226.068ZM225.441 46.9415C225.637 46.9415 225.807 47.0133 225.95 47.1569C226.094 47.3005 226.166 47.4767 226.166 47.6856C226.166 47.8815 226.094 48.0577 225.95 48.2144C225.807 48.358 225.637 48.4298 225.441 48.4298C225.232 48.4298 225.056 48.358 224.912 48.2144C224.769 48.0577 224.697 47.8815 224.697 47.6856C224.697 47.4767 224.769 47.3005 224.912 47.1569C225.056 47.0133 225.232 46.9415 225.441 46.9415Z" fill="#01152E"/>
<path d="M230.723 50.5448H231.976V51.994C232.759 50.8451 233.817 50.2707 235.148 50.2707C236.323 50.2707 237.211 50.6232 237.812 51.3282C238.269 51.8635 238.497 52.6795 238.497 53.7761V60.7087H237.244V54.0503C237.244 53.1103 237.081 52.4575 236.754 52.0919C236.363 51.6219 235.775 51.3869 234.992 51.3869C234.117 51.3869 233.386 51.6872 232.798 52.2878C232.25 52.8361 231.976 53.6521 231.976 54.7357V60.7087H230.723V50.5448Z" fill="#01152E"/>
<path d="M250.398 50.5448H251.593V59.5729C251.593 61.1526 251.26 62.2819 250.594 62.9608C249.772 63.7964 248.603 64.2142 247.089 64.2142C245.875 64.2142 244.915 63.94 244.21 63.3917C243.583 62.9086 243.231 62.2754 243.152 61.4921H244.504C244.608 62.5496 245.476 63.0783 247.108 63.0783C249.302 63.0783 250.398 61.9686 250.398 59.7491V58.8287C249.471 59.9776 248.349 60.5521 247.03 60.5521C245.62 60.5521 244.491 60.0168 243.642 58.9462C242.911 58.0062 242.545 56.8442 242.545 55.4603C242.545 53.8414 243.028 52.5358 243.995 51.5436C244.83 50.695 245.862 50.2707 247.089 50.2707C248.486 50.2707 249.589 50.8582 250.398 52.0332V50.5448ZM247.148 51.3869C246.194 51.3869 245.398 51.759 244.758 52.5032C244.171 53.2082 243.877 54.1743 243.877 55.4016C243.877 56.6941 244.216 57.7124 244.895 58.4566C245.483 59.0963 246.234 59.4162 247.148 59.4162C248.192 59.4162 249.014 59.005 249.615 58.1824C250.137 57.4513 250.398 56.5244 250.398 55.4016C250.398 54.1613 250.105 53.1952 249.517 52.5032C248.877 51.759 248.088 51.3869 247.148 51.3869Z" fill="#01152E"/>
<path d="M0 14.2205C0 6.36671 6.36671 0 14.2205 0H56.8818C64.7356 0 71.1023 6.36671 71.1023 14.2205V56.8818C71.1023 64.7356 64.7356 71.1023 56.8818 71.1023H14.2205C6.36671 71.1023 0 64.7356 0 56.8818V14.2205Z" fill="#01152E"/>
<path d="M32.3018 50.7684L39.7036 38.4181L42.9604 26.95L54.5072 38.4181L62.5012 50.7684L57.1719 61.3544L45.9211 59.59L32.3018 50.7684Z" fill="#FE916D"/>
<path d="M32.3018 50.7684L39.7036 38.4181L42.9604 26.95L54.5072 38.4181L62.5012 50.7684L57.1719 61.3544L45.9211 59.59L32.3018 50.7684Z" fill="#FE916D"/>
<path d="M28.0621 38.4853L26.5619 24.3923L31.9022 17.4604L39.7036 30.1914L36.7192 34.2101L28.0621 38.4853Z" fill="#FE916D"/>
<path d="M28.0621 38.4853L26.5619 24.3923L31.9022 17.4604L39.7036 30.1914L36.7192 34.2101L28.0621 38.4853Z" fill="#FE916D"/>
<path d="M22.4421 18.6881L27.1159 11.6592L34.4753 27.6562L22.4421 47.9749L14.8472 45.3391L7.83654 41.5318L11.8318 28.7634L14.8472 34.2101L17.7684 23.9597L22.4421 18.6881Z" fill="#FE916D"/>
<path d="M22.4421 18.6881L27.1159 11.6592L34.4753 27.6562L22.4421 47.9749L14.8472 45.3391L7.83654 41.5318L11.8318 28.7634L14.8472 34.2101L17.7684 23.9597L22.4421 18.6881Z" fill="#FE916D"/>
</svg>
